<?xml version="1.0" standalone="no"?>
<!DOCTYPE svg PUBLIC "-//W3C//DTD SVG 20010904//EN"
 "http://www.w3.org/TR/2001/REC-SVG-20010904/DTD/svg10.dtd">
<svg version="1.0" xmlns="http://www.w3.org/2000/svg"
 width="1711.000000pt" height="717.000000pt" viewBox="0 0 1711.000000 717.000000"
 preserveAspectRatio="xMidYMid meet">

<g transform="translate(0.000000,717.000000) scale(0.100000,-0.100000)"
fill="#000000" stroke="none">
<path d="M10685 6610 c-190 -17 -356 -71 -500 -161 -151 -94 -350 -298 -463
-474 -115 -178 -250 -513 -373 -924 l-73 -241 -563 0 c-310 0 -563 2 -563 5 0
3 65 221 145 485 80 265 145 483 145 486 0 2 -172 3 -382 2 l-382 -3 -146
-485 -146 -485 -264 -3 c-250 -2 -264 -1 -284 17 -80 75 -299 98 -446 46 -160
-57 -368 -231 -556 -465 -106 -133 -267 -377 -414 -627 -68 -117 -125 -211
-126 -210 -1 1 18 74 42 162 103 373 144 666 115 817 -18 89 -65 206 -101 250
-63 76 -215 117 -365 98 -361 -46 -682 -320 -954 -816 -34 -61 -61 -114 -61
-118 0 -3 65 -6 144 -6 l144 0 42 78 c162 301 345 468 451 412 49 -27 62 -119
33 -240 -11 -47 -526 -1896 -560 -2012 -5 -17 17 -18 375 -18 329 0 381 2 381
15 0 24 118 379 180 540 148 386 359 809 532 1069 135 202 291 371 382 415 82
40 115 27 231 -93 116 -121 171 -150 275 -151 60 0 86 5 130 26 139 65 243
243 257 435 l6 84 158 0 c88 0 159 -3 159 -6 0 -3 -99 -324 -219 -712 -121
-389 -229 -743 -240 -787 -91 -360 -61 -588 100 -759 116 -124 250 -171 464
-163 246 10 433 86 646 263 183 153 329 346 464 615 25 49 45 93 45 99 0 6
-54 10 -148 10 l-147 0 -25 -47 c-41 -79 -144 -236 -209 -321 -107 -141 -210
-205 -333 -206 -78 -1 -109 17 -147 84 -30 53 -31 130 -2 233 29 106 510 1677
516 1688 3 5 256 8 567 8 l560 0 -5 -27 c-12 -61 -951 -3113 -986 -3206 -85
-225 -173 -361 -265 -408 -22 -11 -68 -23 -101 -26 -107 -8 -173 44 -194 154
-6 27 -17 90 -26 139 -17 96 -52 185 -88 223 -50 54 -93 67 -222 67 -111 0
-124 -2 -176 -28 -140 -68 -222 -233 -197 -394 18 -117 103 -235 226 -316 139
-92 282 -127 516 -127 385 0 654 114 917 387 235 245 367 475 544 948 113 301
222 640 510 1585 152 498 285 933 296 968 l21 62 268 0 269 0 39 123 c22 67
42 132 46 145 l7 22 -265 0 c-221 0 -266 2 -266 14 0 34 404 1328 435 1393 40
86 75 113 148 113 93 0 123 -31 180 -190 99 -274 165 -338 339 -328 97 5 143
25 205 90 82 85 113 190 93 307 -47 271 -363 437 -765 401z"/>
<path d="M2543 4899 c-288 -28 -539 -155 -803 -406 -339 -322 -604 -814 -700
-1299 -28 -138 -38 -405 -20 -525 40 -279 167 -475 358 -551 50 -20 74 -23
207 -23 127 0 162 4 230 23 114 33 226 90 330 168 96 72 370 336 445 428 25
30 48 55 51 56 3 0 9 -48 12 -107 7 -126 42 -273 87 -367 50 -107 141 -170
284 -197 86 -16 245 -11 331 11 300 77 606 358 820 753 l47 87 -157 0 -156 0
-17 -31 c-95 -173 -246 -349 -334 -389 -61 -28 -123 -26 -153 4 -36 36 -39 64
-16 157 11 46 160 542 330 1103 171 560 311 1022 311 1027 0 5 -147 8 -352 7
l-353 -3 -60 -199 -59 -199 -32 94 c-17 52 -42 117 -56 144 -29 57 -111 139
-178 177 -87 51 -240 73 -397 57z m322 -308 c56 -25 99 -78 126 -158 34 -97
34 -317 1 -483 -57 -279 -203 -626 -373 -881 -117 -176 -281 -339 -399 -398
-215 -106 -362 -63 -422 121 -25 77 -30 299 -10 418 85 483 323 979 595 1237
161 152 340 206 482 144z"/>
<path d="M11834 4899 c-864 -64 -1577 -757 -1620 -1576 -22 -395 126 -744 409
-969 98 -78 286 -173 409 -208 156 -45 291 -59 503 -53 139 3 220 11 300 27
469 93 878 367 1132 757 65 100 152 279 188 387 63 188 96 442 79 605 l-9 91
122 0 121 0 43 78 c67 123 174 275 234 331 94 89 178 113 232 67 27 -24 28
-27 27 -118 -1 -66 -9 -119 -27 -183 -121 -435 -539 -1924 -543 -1937 -5 -17
17 -18 375 -18 l379 0 7 32 c17 78 134 419 207 603 86 216 266 593 367 770
184 322 389 573 516 635 81 39 115 25 230 -94 135 -140 232 -179 357 -142 83
24 146 72 203 157 118 173 137 388 51 575 -52 113 -133 168 -275 184 -207 24
-381 -54 -605 -270 -193 -187 -357 -412 -606 -832 -74 -125 -135 -226 -136
-225 -2 1 15 65 37 142 121 432 154 702 109 881 -57 228 -155 307 -380 306
-369 -2 -728 -280 -1006 -780 l-51 -92 -28 87 c-107 347 -370 605 -735 721
-169 54 -404 77 -616 61z m306 -289 c156 -45 262 -175 312 -378 70 -289 -29
-839 -226 -1247 -150 -313 -349 -522 -566 -596 -91 -31 -254 -38 -336 -14
-147 42 -251 155 -311 340 -22 68 -27 103 -31 235 -6 227 33 463 123 735 100
302 201 496 354 679 196 233 431 318 681 246z"/>
</g>
</svg>
