
<svg width="473px" height="60px" viewBox="0 0 473 60" version="1.1" xmlns="http://www.w3.org/2000/svg" xmlns:xlink="http://www.w3.org/1999/xlink">
    <g id="Page-1" stroke="none" stroke-width="1" fill="current" fill-rule="evenodd">
        <g id="Artboard" fill="current" fill-rule="nonzero">
            <g id="logoSkyrocket" transform="translate(0.000000, 0.000000)">
                <path d="M22.854594,0.0535236394 L22.854594,0.0535236394 C27.1364852,0.0535236394 30.7582515,0.927743083 33.7198928,2.67618197 L33.7198928,2.67618197 L33.7198928,2.67618197 C36.6458518,4.42462086 39.1436216,6.9223907 41.2132024,10.1694915 L41.2132024,10.1694915 L41.2132024,10.1694915 C41.8198036,11.132917 42.1231042,12.0428189 42.1231042,12.8991971 L42.1231042,12.8991971 L42.1231042,12.8991971 C42.1231042,14.0053523 41.6235503,14.897413 40.6244423,15.5753791 L40.6244423,15.5753791 L40.6244423,15.5753791 C40.0535235,15.9322033 39.3933986,16.1106155 38.6440677,16.1106155 L38.6440677,16.1106155 L38.6440677,16.1106155 C37.8947367,16.1106155 37.1989294,15.9143621 36.5566457,15.5218554 L36.5566457,15.5218554 L36.5566457,15.5218554 C35.9143621,15.1650312 35.4148081,14.6654772 35.0579838,14.0231935 L35.0579838,14.0231935 L35.0579838,14.0231935 C33.7020516,11.7752007 32.0249776,10.0624442 30.0267617,8.88492414 L30.0267617,8.88492414 L30.0267617,8.88492414 C27.9928634,7.70740408 25.4237287,7.11864404 22.3193576,7.11864404 L22.3193576,7.11864404 L22.3193576,7.11864404 C18.5370205,7.11864404 15.4683318,7.85013378 13.1132917,9.31311326 L13.1132917,9.31311326 L13.1132917,9.31311326 C10.7582515,10.8117752 9.58073146,12.9527207 9.58073146,15.73595 L9.58073146,15.73595 L9.58073146,15.73595 C9.58073146,18.3407671 10.633363,20.5173951 12.7386262,22.265834 L12.7386262,22.265834 L12.7386262,22.265834 C14.8438893,24.0142729 18.5905441,25.1561105 23.9785905,25.6913469 L23.9785905,25.6913469 L23.9785905,25.6913469 C29.9732381,26.2979482 34.6119535,28.1177519 37.8947367,31.1507581 L37.8947367,31.1507581 L37.8947367,31.1507581 C41.2132024,34.148082 42.8724352,38.1266725 42.8724352,43.0865297 L42.8724352,43.0865297 L42.8724352,43.0865297 C42.8724352,46.6904548 41.8911685,49.7769847 39.928635,52.3461194 L39.928635,52.3461194 L39.928635,52.3461194 C37.9661016,54.9152541 35.3791257,56.8421051 32.1677073,58.1266724 L32.1677073,58.1266724 L32.1677073,58.1266724 C28.9562889,59.3755573 25.4950936,59.9999998 21.7841212,59.9999998 L21.7841212,59.9999998 L21.7841212,59.9999998 C16.9313113,59.9999998 12.5245316,58.9116858 8.56378231,56.7350578 L8.56378231,56.7350578 L8.56378231,56.7350578 C4.60303299,54.5227474 1.87332738,51.650312 0.374665476,48.1177518 L0.374665476,48.1177518 L0.374665476,48.1177518 C0.124888492,47.5111506 2.84217094e-14,47.0115966 2.84217094e-14,46.6190899 L2.84217094e-14,46.6190899 L2.84217094e-14,46.6190899 C2.84217094e-14,45.869759 0.267618197,45.2096341 0.802854591,44.6387153 L0.802854591,44.6387153 L0.802854591,44.6387153 C1.37377341,44.0677965 2.12310436,43.6752898 3.05084745,43.4611952 L3.05084745,43.4611952 L3.05084745,43.4611952 C3.19357715,43.4255128 3.44335414,43.4076716 3.8001784,43.4076716 L3.8001784,43.4076716 L3.8001784,43.4076716 C4.6208742,43.4076716 5.38804637,43.6396073 6.10169489,44.1034789 L6.10169489,44.1034789 L6.10169489,44.1034789 C6.81534342,44.5673504 7.35057981,45.2096341 7.70740408,46.0303299 L7.70740408,46.0303299 L7.70740408,46.0303299 C8.59946473,47.9571809 10.3657448,49.5985725 13.0062444,50.9545047 L13.0062444,50.9545047 L13.0062444,50.9545047 C15.6824264,52.3104369 18.6083853,52.988403 21.7841212,52.988403 L21.7841212,52.988403 L21.7841212,52.988403 C25.530776,52.988403 28.7065119,52.1141836 31.3113291,50.3657447 L31.3113291,50.3657447 L31.3113291,50.3657447 C33.9161462,48.6529882 35.2185547,46.2979481 35.2185547,43.3006243 L35.2185547,43.3006243 L35.2185547,43.3006243 C35.2185547,40.4460302 34.1123995,38.0196252 31.9000891,36.0214093 L31.9000891,36.0214093 L31.9000891,36.0214093 C29.7234611,33.987511 26.3871542,32.7386261 21.8911685,32.2747546 L21.8911685,32.2747546 L21.8911685,32.2747546 C15.6824264,31.7038358 10.8117752,29.9018732 7.27921496,26.868867 L7.27921496,26.868867 L7.27921496,26.868867 C3.71097233,23.8358608 1.92685102,20.0535236 1.92685102,15.5218554 L1.92685102,15.5218554 L1.92685102,15.5218554 C1.92685102,12.3104371 2.83675289,9.54504903 4.65655663,7.22569132 L4.65655663,7.22569132 L4.65655663,7.22569132 C6.47636037,4.90633361 8.97413021,3.14005351 12.1498661,1.92685102 L12.1498661,1.92685102 L12.1498661,1.92685102 C15.3256021,0.677966099 18.8938447,0.0535236394 22.854594,0.0535236394 L22.854594,0.0535236394 Z M62.5691345,55.3969668 L62.5691345,55.3969668 C62.5691345,56.4674396 62.194469,57.3773415 61.4451381,58.1266724 L61.4451381,58.1266724 L61.4451381,58.1266724 C60.6958071,58.8760034 59.768064,59.2506688 58.6619088,59.2506688 L58.6619088,59.2506688 L58.6619088,59.2506688 C57.6271184,59.2506688 56.7172166,58.8760034 55.9322032,58.1266724 L55.9322032,58.1266724 L55.9322032,58.1266724 C55.1471898,57.3773415 54.7546831,56.4674396 54.7546831,55.3969668 L54.7546831,55.3969668 L54.7546831,4.65655663 L54.7546831,4.65655663 C54.7546831,3.55040142 55.1471898,2.62265833 55.9322032,1.87332738 L55.9322032,1.87332738 L55.9322032,1.87332738 C56.7172166,1.12399643 57.6271184,0.749330952 58.6619088,0.749330952 L58.6619088,0.749330952 L58.6619088,0.749330952 C59.768064,0.749330952 60.6958071,1.12399643 61.4451381,1.87332738 L61.4451381,1.87332738 L61.4451381,1.87332738 C62.194469,2.62265833 62.5691345,3.55040142 62.5691345,4.65655663 L62.5691345,4.65655663 L62.5691345,27.1364852 L87.3505795,2.3015165 L87.3505795,2.3015165 C87.9571808,1.73059767 88.4924172,1.32024977 88.9562887,1.07047279 L88.9562887,1.07047279 L88.9562887,1.07047279 C89.4558427,0.856378231 89.9910791,0.749330952 90.5619979,0.749330952 L90.5619979,0.749330952 L90.5619979,0.749330952 C91.6324707,0.749330952 92.4531665,1.05263158 93.0240853,1.65923282 L93.0240853,1.65923282 L93.0240853,1.65923282 C93.5950041,2.3015165 93.8804636,3.06868866 93.8804636,3.96074932 L93.8804636,3.96074932 L93.8804636,3.96074932 C93.8804636,5.28099909 93.3987508,6.40499552 92.4353253,7.3327386 L92.4353253,7.3327386 L73.327386,26.5477252 L92.8099908,53.0419267 L92.8099908,53.0419267 C93.3095447,53.7555752 93.5593217,54.5584298 93.5593217,55.4504904 L93.5593217,55.4504904 L93.5593217,55.4504904 C93.5593217,56.4495984 93.2381799,57.341659 92.5958962,58.1266724 L92.5958962,58.1266724 L92.5958962,58.1266724 C91.9536125,58.8760034 91.1329167,59.2506688 90.1338088,59.2506688 L90.1338088,59.2506688 L90.1338088,59.2506688 C88.7421942,59.2506688 87.6717214,58.7154324 86.9223904,57.6449597 L86.9223904,57.6449597 L67.9750221,31.9000891 L62.5691345,37.3059767 L62.5691345,55.3969668 Z M143.764495,0.749330952 L143.764495,0.749330952 C144.727921,0.749330952 145.512934,1.10615521 146.119536,1.81980374 L146.119536,1.81980374 L146.119536,1.81980374 C146.761819,2.49776984 147.082961,3.33630686 147.082961,4.33541479 L147.082961,4.33541479 L147.082961,4.33541479 C147.082961,5.19179302 146.833184,6.01248883 146.33363,6.79750221 L146.33363,6.79750221 L126.155218,37.8947367 L126.155218,55.3969668 L126.155218,55.3969668 C126.155218,56.4674396 125.780553,57.3773415 125.031222,58.1266724 L125.031222,58.1266724 L125.031222,58.1266724 C124.281891,58.8760034 123.371989,59.2506688 122.301516,59.2506688 L122.301516,59.2506688 L122.301516,59.2506688 C121.231043,59.2506688 120.321141,58.8760034 119.57181,58.1266724 L119.57181,58.1266724 L119.57181,58.1266724 C118.82248,57.3773415 118.447814,56.4674396 118.447814,55.3969668 L118.447814,55.3969668 L118.447814,37.8947367 L98.4299729,6.79750221 L98.4299729,6.79750221 C97.8947365,5.9768064 97.6271183,5.19179302 97.6271183,4.44246207 L97.6271183,4.44246207 L97.6271183,4.44246207 C97.6271183,3.37198928 98.019625,2.49776984 98.8046384,1.81980374 L98.8046384,1.81980374 L98.8046384,1.81980374 C99.5539693,1.10615521 100.463871,0.749330952 101.534344,0.749330952 L101.534344,0.749330952 L101.534344,0.749330952 C102.319357,0.749330952 102.961641,0.927743083 103.461195,1.28456735 L103.461195,1.28456735 L103.461195,1.28456735 C103.960749,1.64139161 104.460303,2.19446922 104.959857,2.94380017 L104.959857,2.94380017 L122.515611,30.722569 L140.338983,2.62265833 L140.338983,2.62265833 C141.123996,1.37377341 142.265834,0.749330952 143.764495,0.749330952 L143.764495,0.749330952 Z M192.95272,53.2560212 L192.95272,53.2560212 C193.452274,54.076717 193.702051,54.9152541 193.702051,55.7716323 L193.702051,55.7716323 L193.702051,55.7716323 C193.702051,56.7707402 193.363068,57.591436 192.685102,58.2337197 L192.685102,58.2337197 L192.685102,58.2337197 C192.007136,58.9116858 191.097234,59.2506688 189.955396,59.2506688 L189.955396,59.2506688 L189.955396,59.2506688 C188.492417,59.2506688 187.36842,58.6262264 186.583407,57.3773415 L186.583407,57.3773415 L173.68421,36.7172166 L172.346119,36.7172166 L162.765387,36.7172166 L162.765387,55.3969668 L162.765387,55.3969668 C162.765387,56.4674396 162.390722,57.3773415 161.641391,58.1266724 L161.641391,58.1266724 L161.641391,58.1266724 C160.927743,58.8760034 159.999999,59.2506688 158.858162,59.2506688 L158.858162,59.2506688 L158.858162,59.2506688 C157.752007,59.2506688 156.824264,58.8760034 156.074933,58.1266724 L156.074933,58.1266724 L156.074933,58.1266724 C155.325602,57.3773415 154.950936,56.4674396 154.950936,55.3969668 L154.950936,55.3969668 L154.950936,4.65655663 L154.950936,4.65655663 C154.950936,3.51471899 155.325602,2.56913469 156.074933,1.81980374 L156.074933,1.81980374 L156.074933,1.81980374 C156.824264,1.10615521 157.752007,0.749330952 158.858162,0.749330952 L158.858162,0.749330952 L172.346119,0.749330952 L172.346119,0.749330952 C176.021409,0.749330952 179.322033,1.51650312 182.247992,3.05084745 L182.247992,3.05084745 L182.247992,3.05084745 C185.173951,4.6208742 187.457626,6.79750221 189.099018,9.58073146 L189.099018,9.58073146 L189.099018,9.58073146 C190.704727,12.3996431 191.507582,15.5932203 191.507582,19.1614629 L191.507582,19.1614629 L191.507582,19.1614629 C191.507582,22.7297055 190.615521,25.8876003 188.8314,28.6351471 L188.8314,28.6351471 L188.8314,28.6351471 C187.011596,31.3826939 184.56735,33.4522746 181.498661,34.8438893 L181.498661,34.8438893 L192.95272,53.2560212 Z M162.765387,29.545049 L172.346119,29.545049 L172.346119,29.545049 C175.735949,29.545049 178.53702,28.5816235 180.74933,26.6547724 L180.74933,26.6547724 L180.74933,26.6547724 C182.925958,24.7279214 184.014272,22.2301516 184.014272,19.1614629 L184.014272,19.1614629 L184.014272,19.1614629 C184.014272,15.8786797 182.925958,13.1846565 180.74933,11.0793934 L180.74933,11.0793934 L180.74933,11.0793934 C178.53702,8.97413021 175.735949,7.92149863 172.346119,7.92149863 L172.346119,7.92149863 L162.765387,7.92149863 L162.765387,29.545049 Z M229.348795,0 L229.348795,0 C235.093666,0 240.231935,1.26672613 244.763603,3.8001784 L244.763603,3.8001784 L244.763603,3.8001784 C249.295271,6.36931309 252.80999,9.91971451 255.30776,14.4513826 L255.30776,14.4513826 L255.30776,14.4513826 C257.841212,19.0187332 259.107938,24.192685 259.107938,29.9732381 L259.107938,29.9732381 L259.107938,29.9732381 C259.107938,35.7537911 257.841212,40.9455842 255.30776,45.5486172 L255.30776,45.5486172 L255.30776,45.5486172 C252.80999,50.1159677 249.313112,53.6663691 244.817127,56.1998214 L244.817127,56.1998214 L244.817127,56.1998214 C240.321141,58.7332737 235.16503,60 229.348795,60 L229.348795,60 L229.348795,60 C223.568242,60 218.412131,58.7332737 213.880463,56.1998214 L213.880463,56.1998214 L213.880463,56.1998214 C209.348795,53.6663691 205.834076,50.1159677 203.336306,45.5486172 L203.336306,45.5486172 L203.336306,45.5486172 C200.838536,40.9455842 199.589651,35.7537911 199.589651,29.9732381 L199.589651,29.9732381 L199.589651,29.9732381 C199.589651,24.192685 200.838536,19.0187332 203.336306,14.4513826 L203.336306,14.4513826 L203.336306,14.4513826 C205.834076,9.91971451 209.348795,6.36931309 213.880463,3.8001784 L213.880463,3.8001784 L213.880463,3.8001784 C218.412131,1.26672613 223.568242,0 229.348795,0 L229.348795,0 Z M229.348795,7.0651204 L229.348795,7.0651204 C225.066904,7.0651204 221.231043,8.06422834 217.841212,10.0624442 L217.841212,10.0624442 L217.841212,10.0624442 C214.487064,12.0606601 211.864406,14.8082069 209.973237,18.3050847 L209.973237,18.3050847 L209.973237,18.3050847 C208.046386,21.8019625 207.082961,25.6913469 207.082961,29.9732381 L207.082961,29.9732381 L207.082961,29.9732381 C207.082961,34.2551292 208.046386,38.1445137 209.973237,41.6413915 L209.973237,41.6413915 L209.973237,41.6413915 C211.864406,45.1382692 214.504906,47.9036573 217.894736,49.9375556 L217.894736,49.9375556 L217.894736,49.9375556 C221.284567,51.9714539 225.102586,52.988403 229.348795,52.988403 L229.348795,52.988403 L229.348795,52.988403 C233.595004,52.988403 237.413023,51.9714539 240.802854,49.9375556 L240.802854,49.9375556 L240.802854,49.9375556 C244.228367,47.9036573 246.886707,45.1382692 248.777876,41.6413915 L248.777876,41.6413915 L248.777876,41.6413915 C250.669045,38.1445137 251.614629,34.2551292 251.614629,29.9732381 L251.614629,29.9732381 L251.614629,29.9732381 C251.614629,25.6913469 250.669045,21.8019625 248.777876,18.3050847 L248.777876,18.3050847 L248.777876,18.3050847 C246.886707,14.8082069 244.246208,12.0606601 240.856377,10.0624442 L240.856377,10.0624442 L240.856377,10.0624442 C237.502229,8.06422834 233.666369,7.0651204 229.348795,7.0651204 L229.348795,7.0651204 Z M297.537912,0 L297.537912,0 C301.355931,0 304.638714,0.499553968 307.386261,1.4986619 L307.386261,1.4986619 L307.386261,1.4986619 C310.16949,2.49776984 312.988402,4.13916145 315.842996,6.42283673 L315.842996,6.42283673 L315.842996,6.42283673 C316.449597,6.88670827 316.842104,7.35057981 317.020516,7.81445136 L317.020516,7.81445136 L317.020516,7.81445136 C317.234611,8.31400532 317.341658,8.88492414 317.341658,9.52720782 L317.341658,9.52720782 L317.341658,9.52720782 C317.341658,10.5263158 316.966993,11.3470116 316.217662,11.9892952 L316.217662,11.9892952 L316.217662,11.9892952 C315.504013,12.6315789 314.683317,12.9527207 313.755574,12.9527207 L313.755574,12.9527207 L313.755574,12.9527207 C312.792149,12.9527207 311.917929,12.6315789 311.132916,11.9892952 L311.132916,11.9892952 L311.132916,11.9892952 C309.063335,10.2408563 307.065119,8.97413021 305.138268,8.18911683 L305.138268,8.18911683 L305.138268,8.18911683 C303.175735,7.43978588 300.642283,7.0651204 297.537912,7.0651204 L297.537912,7.0651204 L297.537912,7.0651204 C293.648527,7.0651204 290.062443,8.08206955 286.77966,10.1159679 L286.77966,10.1159679 L286.77966,10.1159679 C283.532559,12.1498661 280.945583,14.9330954 279.018732,18.4656556 L279.018732,18.4656556 L279.018732,18.4656556 C277.091881,21.9982158 276.128456,25.8340766 276.128456,29.9732381 L276.128456,29.9732381 L276.128456,29.9732381 C276.128456,34.1837644 277.091881,38.0374664 279.018732,41.5343442 L279.018732,41.5343442 L279.018732,41.5343442 C280.945583,45.031222 283.532559,47.79661 286.77966,49.8305083 L286.77966,49.8305083 L286.77966,49.8305083 C290.062443,51.8644066 293.648527,52.8813558 297.537912,52.8813558 L297.537912,52.8813558 L297.537912,52.8813558 C302.355039,52.8813558 306.958072,51.2399641 311.347011,47.9571809 L311.347011,47.9571809 L311.347011,47.9571809 C312.203389,47.3505797 313.024085,47.0472791 313.809098,47.0472791 L313.809098,47.0472791 L313.809098,47.0472791 C314.772523,47.0472791 315.557537,47.3862621 316.164138,48.0642282 L316.164138,48.0642282 L316.164138,48.0642282 C316.806422,48.7421943 317.127564,49.634255 317.127564,50.7404102 L317.127564,50.7404102 L317.127564,50.7404102 C317.127564,51.7752005 316.717216,52.7029436 315.89652,53.5236394 L315.89652,53.5236394 L315.89652,53.5236394 C310.508474,57.841213 304.388937,60 297.537912,60 L297.537912,60 L297.537912,60 C292.185548,60 287.314896,58.67975 282.925958,56.0392505 L282.925958,56.0392505 L282.925958,56.0392505 C278.501337,53.3987509 275.004459,49.7769847 272.435325,45.1739517 L272.435325,45.1739517 L272.435325,45.1739517 C269.901872,40.5709187 268.635146,35.5040142 268.635146,29.9732381 L268.635146,29.9732381 L268.635146,29.9732381 C268.635146,24.4781444 269.901872,19.4469223 272.435325,14.8795718 L272.435325,14.8795718 L272.435325,14.8795718 C275.004459,10.3122212 278.501337,6.69045493 282.925958,4.01427296 L282.925958,4.01427296 L282.925958,4.01427296 C287.314896,1.33809099 292.185548,0 297.537912,0 L297.537912,0 Z M337.359499,55.3969668 L337.359499,55.3969668 C337.359499,56.4674396 336.984834,57.3773415 336.235503,58.1266724 L336.235503,58.1266724 L336.235503,58.1266724 C335.486172,58.8760034 334.558429,59.2506688 333.452274,59.2506688 L333.452274,59.2506688 L333.452274,59.2506688 C332.381801,59.2506688 331.471899,58.8760034 330.722568,58.1266724 L330.722568,58.1266724 L330.722568,58.1266724 C329.937555,57.3773415 329.545048,56.4674396 329.545048,55.3969668 L329.545048,55.3969668 L329.545048,4.65655663 L329.545048,4.65655663 C329.545048,3.55040142 329.937555,2.62265833 330.722568,1.87332738 L330.722568,1.87332738 L330.722568,1.87332738 C331.471899,1.12399643 332.381801,0.749330952 333.452274,0.749330952 L333.452274,0.749330952 L333.452274,0.749330952 C334.558429,0.749330952 335.486172,1.12399643 336.235503,1.87332738 L336.235503,1.87332738 L336.235503,1.87332738 C336.984834,2.62265833 337.359499,3.55040142 337.359499,4.65655663 L337.359499,4.65655663 L337.359499,27.1364852 L362.140944,2.3015165 L362.140944,2.3015165 C362.747546,1.73059767 363.282782,1.32024977 363.746654,1.07047279 L363.746654,1.07047279 L363.746654,1.07047279 C364.210525,0.856378231 364.745761,0.749330952 365.352363,0.749330952 L365.352363,0.749330952 L365.352363,0.749330952 C366.422836,0.749330952 367.243531,1.05263158 367.81445,1.65923282 L367.81445,1.65923282 L367.81445,1.65923282 C368.385369,2.3015165 368.670828,3.06868866 368.670828,3.96074932 L368.670828,3.96074932 L368.670828,3.96074932 C368.670828,5.28099909 368.189116,6.40499552 367.22569,7.3327386 L367.22569,7.3327386 L348.117751,26.5477252 L367.600356,53.0419267 L367.600356,53.0419267 C368.09991,53.7555752 368.349687,54.5584298 368.349687,55.4504904 L368.349687,55.4504904 L368.349687,55.4504904 C368.349687,56.4495984 368.028545,57.341659 367.386261,58.1266724 L367.386261,58.1266724 L367.386261,58.1266724 C366.743977,58.8760034 365.923282,59.2506688 364.924174,59.2506688 L364.924174,59.2506688 L364.924174,59.2506688 C363.532559,59.2506688 362.462086,58.7154324 361.712755,57.6449597 L361.712755,57.6449597 L342.711863,31.9000891 L337.359499,37.3059767 L337.359499,55.3969668 Z M417.270293,52.0785012 L417.270293,52.0785012 C418.447813,52.0785012 419.375556,52.399643 420.053522,53.0419267 L420.053522,53.0419267 L420.053522,53.0419267 C420.767171,53.6842103 421.123995,54.5405886 421.123995,55.6110614 L421.123995,55.6110614 L421.123995,55.6110614 C421.123995,56.7172166 420.767171,57.591436 420.053522,58.2337197 L420.053522,58.2337197 L420.053522,58.2337197 C419.375556,58.9116858 418.447813,59.2506688 417.270293,59.2506688 L417.270293,59.2506688 L383.443353,59.2506688 L383.443353,59.2506688 C382.337198,59.2506688 381.409455,58.8760034 380.660124,58.1266724 L380.660124,58.1266724 L380.660124,58.1266724 C379.910793,57.3773415 379.536127,56.4674396 379.536127,55.3969668 L379.536127,55.3969668 L379.536127,4.65655663 L379.536127,4.65655663 C379.536127,3.51471899 379.910793,2.56913469 380.660124,1.81980374 L380.660124,1.81980374 L380.660124,1.81980374 C381.409455,1.10615521 382.337198,0.749330952 383.443353,0.749330952 L383.443353,0.749330952 L417.270293,0.749330952 L417.270293,0.749330952 C418.447813,0.749330952 419.375556,1.088314 420.053522,1.7662801 L420.053522,1.7662801 L420.053522,1.7662801 C420.767171,2.4442462 421.123995,3.33630686 421.123995,4.44246207 L421.123995,4.44246207 L421.123995,4.44246207 C421.123995,5.47725243 420.767171,6.31578945 420.053522,6.95807313 L420.053522,6.95807313 L420.053522,6.95807313 C419.375556,7.6003568 418.447813,7.92149863 417.270293,7.92149863 L417.270293,7.92149863 L387.297055,7.92149863 L387.297055,26.1730597 L408.813558,26.1730597 L408.813558,26.1730597 C409.919713,26.1730597 410.829615,26.4942015 411.543264,27.1364852 L411.543264,27.1364852 L411.543264,27.1364852 C412.292594,27.8144513 412.66726,28.6886707 412.66726,29.7591435 L412.66726,29.7591435 L412.66726,29.7591435 C412.66726,30.7939339 412.292594,31.6503121 411.543264,32.3282782 L411.543264,32.3282782 L411.543264,32.3282782 C410.829615,33.0062443 409.919713,33.3452274 408.813558,33.3452274 L408.813558,33.3452274 L387.297055,33.3452274 L387.297055,52.0785012 L417.270293,52.0785012 Z M469.29527,0.749330952 L469.29527,0.749330952 C470.330061,0.749330952 471.186439,1.088314 471.864405,1.7662801 L471.864405,1.7662801 L471.864405,1.7662801 C472.542371,2.4442462 472.881354,3.30062443 472.881354,4.33541479 L472.881354,4.33541479 L472.881354,4.33541479 C472.881354,5.40588758 472.542371,6.26226581 471.864405,6.90454949 L471.864405,6.90454949 L471.864405,6.90454949 C471.186439,7.58251559 470.330061,7.92149863 469.29527,7.92149863 L469.29527,7.92149863 L453.184655,7.92149863 L453.184655,55.3969668 L453.184655,55.3969668 C453.184655,56.4674396 452.80999,57.3773415 452.060659,58.1266724 L452.060659,58.1266724 L452.060659,58.1266724 C451.311328,58.8760034 450.383585,59.2506688 449.277429,59.2506688 L449.277429,59.2506688 L449.277429,59.2506688 C448.171274,59.2506688 447.243531,58.8760034 446.4942,58.1266724 L446.4942,58.1266724 L446.4942,58.1266724 C445.744869,57.3773415 445.370204,56.4674396 445.370204,55.3969668 L445.370204,55.3969668 L445.370204,7.92149863 L429.206065,7.92149863 L429.206065,7.92149863 C428.171274,7.92149863 427.314896,7.58251559 426.63693,6.90454949 L426.63693,6.90454949 L426.63693,6.90454949 C425.958964,6.26226581 425.619981,5.40588758 425.619981,4.33541479 L425.619981,4.33541479 L425.619981,4.33541479 C425.619981,3.30062443 425.958964,2.4442462 426.63693,1.7662801 L426.63693,1.7662801 L426.63693,1.7662801 C427.314896,1.088314 428.171274,0.749330952 429.206065,0.749330952 L429.206065,0.749330952 L469.29527,0.749330952 Z" id="Shape"></path>
            </g>
        </g>
    </g>
</svg>